<svg version="1.1" xmlns="http://www.w3.org/2000/svg" xmlns:xlink="http://www.w3.org/1999/xlink" width="1807" height="801" viewBox="0,0,1807,801"><g transform="translate(903.5,400.5)"><g data-paper-data="{&quot;id&quot;:2,&quot;isDefaultLayer&quot;:true}" id="Default layer" fill="none" fill-rule="nonzero" stroke="none" stroke-width="1" stroke-linecap="butt" stroke-linejoin="miter" stroke-miterlimit="10" stroke-dasharray="" stroke-dashoffset="0" font-family="none" font-weight="none" font-size="none" text-anchor="none" style="mix-blend-mode: normal"><g data-paper-data="{&quot;designItem&quot;:{&quot;id&quot;:&quot;64b20993-68ad-4a7f-aa6a-666994dfcc1f&quot;,&quot;type&quot;:0,&quot;attachedToItemId&quot;:null,&quot;name&quot;:&quot;TestBcd&quot;,&quot;elementId&quot;:239598,&quot;position&quot;:null}}" fill="none" stroke="none" font-family="sans-serif" font-weight="normal" font-size="12" text-anchor="start"/><path d="M-345.5,-137.5v-89h255v89z" fill="none" stroke="#000000"/><path d="M136.5,-179c0,25.12896 -20.37104,45.5 -45.5,45.5c-25.12896,0 -45.5,-20.37104 -45.5,-45.5c0,-25.12896 20.37104,-45.5 45.5,-45.5c25.12896,0 45.5,20.37104 45.5,45.5z" fill="none" stroke="#000000"/><path d="M83.5,14c0,30.6518 -24.8482,55.5 -55.5,55.5c-30.6518,0 -55.5,-24.8482 -55.5,-55.5c0,-30.6518 24.8482,-55.5 55.5,-55.5c30.6518,0 55.5,24.8482 55.5,55.5z" fill="none" stroke="#000000"/><g data-paper-data="{&quot;isPGTextItem&quot;:true,&quot;text&quot;:&quot;&quot;,&quot;fontFamily&quot;:&quot;Noto Sans&quot;,&quot;fontStyle&quot;:&quot;Italic&quot;,&quot;fontSize&quot;:10,&quot;letterSpacing&quot;:0,&quot;wasScaled&quot;:false}" fill="none" stroke="none" font-family="sans-serif" font-weight="normal" font-size="12" text-anchor="start"/><g data-paper-data="{&quot;isPGTextItem&quot;:true,&quot;text&quot;:&quot;text&quot;,&quot;fontFamily&quot;:&quot;Noto Sans&quot;,&quot;fontStyle&quot;:&quot;Italic&quot;,&quot;fontSize&quot;:14,&quot;letterSpacing&quot;:0,&quot;wasScaled&quot;:false,&quot;origPos&quot;:null}" stroke="none"><g data-paper-data="{&quot;isPGGlyphGroup&quot;:true}"><path d="M-197.74414,-249.46729v-19.06542h4.64844v19.06542z" data-paper-data="{&quot;isPGGlyphRect&quot;:true}" fill-opacity="0.00001" fill="#000000"/><path d="M-194.96875,-254.43701v0c0.28255,0 0.61295,-0.06152 0.99121,-0.18457v0v0.94336c-0.1276,0.0638 -0.31103,0.12077 -0.55029,0.1709c-0.23926,0.05013 -0.44776,0.07519 -0.62549,0.07519v0c-0.58333,0 -1.02767,-0.13672 -1.33301,-0.41016c-0.30534,-0.27344 -0.45801,-0.68131 -0.45801,-1.22363v0c0,-0.29167 0.04102,-0.62434 0.12305,-0.99804v0l0.85449,-4.07422h-1.16211l0.10938,-0.55371l1.26465,-0.53321l0.86816,-1.55859h0.72461l-0.37598,1.70898h1.88672l-0.1914,0.93653h-1.87989l-0.86816,4.09472c-0.08203,0.36914 -0.12305,0.64714 -0.12305,0.83399v0c0,0.21875 0.05697,0.40218 0.1709,0.55029c0.11393,0.14811 0.30534,0.22217 0.57422,0.22217z" fill="#000000"/></g><g data-paper-data="{&quot;isPGGlyphGroup&quot;:true}"><path d="M-193.0957,-249.46729v-19.06542h6.98633v19.06542z" data-paper-data="{&quot;isPGGlyphRect&quot;:true}" fill-opacity="0.00001" fill="#000000"/><path d="M-188.74121,-260.19287v0c-0.4694,0 -0.91146,0.21989 -1.32617,0.65967c-0.41471,0.43978 -0.7155,1.01286 -0.90235,1.71924v0h0.10254c0.99349,0 1.76368,-0.13217 2.31055,-0.39649c0.54688,-0.26432 0.82031,-0.64941 0.82031,-1.15527v0c0,-0.24154 -0.08203,-0.43978 -0.24609,-0.59473c-0.16406,-0.15495 -0.41699,-0.23242 -0.75879,-0.23242zM-189.70508,-253.43213v0c-0.84766,0 -1.51302,-0.24951 -1.99609,-0.74853c-0.48307,-0.49902 -0.72461,-1.1906 -0.72461,-2.07471v0c0,-0.85677 0.16748,-1.6748 0.50244,-2.4541c0.33496,-0.7793 0.78727,-1.39111 1.35693,-1.83545c0.56966,-0.44434 1.20085,-0.66651 1.89356,-0.66651v0c0.71094,0 1.24641,0.15381 1.60644,0.46143c0.36003,0.30762 0.54004,0.73714 0.54004,1.28857v0c0,0.82943 -0.3828,1.47771 -1.14843,1.94483c-0.76562,0.46712 -1.84571,0.70068 -3.24024,0.70068v0h-0.23242l-0.02734,0.51953c0,0.57422 0.13785,1.0254 0.41357,1.35352c0.27572,0.32813 0.70068,0.49219 1.2749,0.49219v0c0.35091,0 0.68701,-0.05013 1.0083,-0.15039c0.32129,-0.10026 0.66651,-0.24154 1.03565,-0.42383v0v1.05273c-0.45117,0.20964 -0.84538,0.35205 -1.18262,0.42725c-0.33724,0.0752 -0.69727,0.11279 -1.08008,0.11279z" fill="#000000"/></g><g data-paper-data="{&quot;isPGGlyphGroup&quot;:true}"><path d="M-186.10937,-249.46729v-19.06542h6.76074v19.06542z" data-paper-data="{&quot;isPGGlyphRect&quot;:true}" fill-opacity="0.00001" fill="#000000"/><path d="M-186.62891,-253.56885l3.24707,-3.8623l-1.62011,-3.64356h1.24414l1.16211,2.77539l2.20117,-2.77539h1.42187l-3.11718,3.69825l1.72265,3.80761h-1.25097l-1.27149,-2.91211l-2.31055,2.91211z" fill="#000000"/></g><g data-paper-data="{&quot;isPGGlyphGroup&quot;:true}"><path d="M-179.34863,-249.46729v-19.06542h4.64843v19.06542z" data-paper-data="{&quot;isPGGlyphRect&quot;:true}" fill-opacity="0.00001" fill="#000000"/><path d="M-176.57324,-254.43701v0c0.28255,0 0.61295,-0.06152 0.99121,-0.18457v0v0.94336c-0.1276,0.0638 -0.31103,0.12077 -0.55029,0.1709c-0.23926,0.05013 -0.44776,0.07519 -0.62549,0.07519v0c-0.58333,0 -1.02767,-0.13672 -1.33301,-0.41016c-0.30534,-0.27344 -0.45801,-0.68131 -0.45801,-1.22363v0c0,-0.29167 0.04102,-0.62434 0.12305,-0.99804v0l0.85449,-4.07422h-1.16211l0.10938,-0.55371l1.26465,-0.53321l0.86816,-1.55859h0.72461l-0.37598,1.70898h1.88672l-0.19141,0.93653h-1.87988l-0.86816,4.09472c-0.08203,0.36914 -0.12305,0.64714 -0.12305,0.83399v0c0,0.21875 0.05697,0.40218 0.1709,0.55029c0.11393,0.14811 0.30534,0.22217 0.57422,0.22217z" fill="#000000"/></g></g><g data-paper-data="{&quot;isPGTextItem&quot;:true,&quot;text&quot;:&quot;text text 123&quot;,&quot;fontFamily&quot;:&quot;Noto Sans&quot;,&quot;fontStyle&quot;:&quot;Italic&quot;,&quot;fontSize&quot;:14,&quot;letterSpacing&quot;:0,&quot;wasScaled&quot;:false,&quot;origPos&quot;:null}" stroke="none"><g data-paper-data="{&quot;isPGGlyphGroup&quot;:true}"><path d="M94.75293,26.53271v-19.06542h4.64844v19.06542z" data-paper-data="{&quot;isPGGlyphRect&quot;:true}" fill-opacity="0.00001" fill="#000000"/><path d="M97.52832,21.56299v0c0.28255,0 0.61295,-0.06152 0.99121,-0.18457v0v0.94336c-0.1276,0.0638 -0.31103,0.12077 -0.55029,0.1709c-0.23926,0.05013 -0.44776,0.07519 -0.62549,0.07519v0c-0.58333,0 -1.02767,-0.13672 -1.33301,-0.41016c-0.30534,-0.27344 -0.45801,-0.68131 -0.45801,-1.22363v0c0,-0.29167 0.04102,-0.62434 0.12305,-0.99804v0l0.85449,-4.07422h-1.16211l0.10938,-0.55371l1.26465,-0.53321l0.86816,-1.55859h0.72461l-0.37598,1.70898h1.88672l-0.1914,0.93653h-1.87989l-0.86816,4.09472c-0.08203,0.36914 -0.12305,0.64714 -0.12305,0.83399v0c0,0.21875 0.05697,0.40218 0.1709,0.55029c0.11393,0.14811 0.30534,0.22217 0.57422,0.22217z" fill="#000000"/></g><g data-paper-data="{&quot;isPGGlyphGroup&quot;:true}"><path d="M99.40137,26.53271v-19.06542h6.98633v19.06542z" data-paper-data="{&quot;isPGGlyphRect&quot;:true}" fill-opacity="0.00001" fill="#000000"/><path d="M103.75586,15.80713v0c-0.4694,0 -0.91146,0.21989 -1.32617,0.65967c-0.41471,0.43978 -0.7155,1.01286 -0.90235,1.71924v0h0.10254c0.99349,0 1.76368,-0.13217 2.31055,-0.39649c0.54688,-0.26432 0.82031,-0.64941 0.82031,-1.15527v0c0,-0.24154 -0.08203,-0.43978 -0.24609,-0.59473c-0.16406,-0.15495 -0.41699,-0.23242 -0.75879,-0.23242zM102.79199,22.56787v0c-0.84766,0 -1.51302,-0.24951 -1.99609,-0.74853c-0.48307,-0.49902 -0.72461,-1.1906 -0.72461,-2.07471v0c0,-0.85677 0.16748,-1.6748 0.50244,-2.4541c0.33496,-0.7793 0.78727,-1.39111 1.35693,-1.83545c0.56966,-0.44434 1.20085,-0.66651 1.89356,-0.66651v0c0.71094,0 1.24641,0.15381 1.60644,0.46143c0.36003,0.30762 0.54004,0.73714 0.54004,1.28857v0c0,0.82943 -0.3828,1.47771 -1.14843,1.94483c-0.76562,0.46712 -1.84571,0.70068 -3.24024,0.70068v0h-0.23242l-0.02734,0.51953c0,0.57422 0.13785,1.0254 0.41357,1.35352c0.27572,0.32813 0.70068,0.49219 1.2749,0.49219v0c0.35091,0 0.68701,-0.05013 1.0083,-0.15039c0.32129,-0.10026 0.66651,-0.24154 1.03565,-0.42383v0v1.05273c-0.45117,0.20964 -0.84538,0.35205 -1.18262,0.42725c-0.33724,0.0752 -0.69727,0.11279 -1.08008,0.11279z" fill="#000000"/></g><g data-paper-data="{&quot;isPGGlyphGroup&quot;:true}"><path d="M106.3877,26.53271v-19.06542h6.76074v19.06542z" data-paper-data="{&quot;isPGGlyphRect&quot;:true}" fill-opacity="0.00001" fill="#000000"/><path d="M105.86816,22.43115l3.24707,-3.8623l-1.62011,-3.64356h1.24414l1.16211,2.77539l2.20117,-2.77539h1.42187l-3.11718,3.69825l1.72265,3.80761h-1.25097l-1.27149,-2.91211l-2.31054,2.91211z" fill="#000000"/></g><g data-paper-data="{&quot;isPGGlyphGroup&quot;:true}"><path d="M113.14844,26.53271v-19.06542h4.64844v19.06542z" data-paper-data="{&quot;isPGGlyphRect&quot;:true}" fill-opacity="0.00001" fill="#000000"/><path d="M115.92383,21.56299v0c0.28255,0 0.61295,-0.06152 0.99121,-0.18457v0v0.94336c-0.1276,0.0638 -0.31103,0.12077 -0.55029,0.1709c-0.23926,0.05013 -0.44776,0.07519 -0.62549,0.07519v0c-0.58333,0 -1.02767,-0.13672 -1.33301,-0.41016c-0.30534,-0.27344 -0.45801,-0.68131 -0.45801,-1.22363v0c0,-0.29167 0.04102,-0.62434 0.12305,-0.99804v0l0.85449,-4.07422h-1.16211l0.10938,-0.55371l1.26465,-0.53321l0.86816,-1.55859h0.72461l-0.37598,1.70898h1.88672l-0.19141,0.93653h-1.87988l-0.86816,4.09472c-0.08203,0.36914 -0.12305,0.64714 -0.12305,0.83399v0c0,0.21875 0.05697,0.40218 0.1709,0.55029c0.11393,0.14811 0.30534,0.22217 0.57422,0.22217z" fill="#000000"/></g><g data-paper-data="{&quot;isPGGlyphGroup&quot;:true}"><path d="M117.79688,26.53271v-19.06542h3.63671v19.06542z" data-paper-data="{&quot;isPGGlyphRect&quot;:true}" fill-opacity="0.00001" fill="#000000"/><path fill="#000000"/></g><g data-paper-data="{&quot;isPGGlyphGroup&quot;:true}"><path d="M121.43359,26.53271v-19.06542h4.64844v19.06542z" data-paper-data="{&quot;isPGGlyphRect&quot;:true}" fill-opacity="0.00001" fill="#000000"/><path d="M124.20898,21.56299v0c0.28255,0 0.61296,-0.06152 0.99122,-0.18457v0v0.94336c-0.1276,0.0638 -0.31104,0.12077 -0.5503,0.1709c-0.23926,0.05013 -0.44776,0.07519 -0.62549,0.07519v0c-0.58333,0 -1.02766,-0.13672 -1.333,-0.41016c-0.30534,-0.27344 -0.45801,-0.68131 -0.45801,-1.22363v0c0,-0.29167 0.04102,-0.62434 0.12305,-0.99804v0l0.85449,-4.07422h-1.16211l0.10937,-0.55371l1.26465,-0.53321l0.86817,-1.55859h0.72461l-0.37598,1.70898h1.88672l-0.19141,0.93653h-1.87988l-0.86817,4.09472c-0.08203,0.36914 -0.12304,0.64714 -0.12304,0.83399v0c0,0.21875 0.05697,0.40218 0.1709,0.55029c0.11393,0.14811 0.30533,0.22217 0.57421,0.22217z" fill="#000000"/></g><g data-paper-data="{&quot;isPGGlyphGroup&quot;:true}"><path d="M126.08203,26.53271v-19.06542h6.98633v19.06542z" data-paper-data="{&quot;isPGGlyphRect&quot;:true}" fill-opacity="0.00001" fill="#000000"/><path d="M130.43652,15.80713v0c-0.4694,0 -0.91146,0.21989 -1.32617,0.65967c-0.41471,0.43978 -0.71549,1.01286 -0.90234,1.71924v0h0.10254c0.99349,0 1.76367,-0.13217 2.31054,-0.39649c0.54688,-0.26432 0.82032,-0.64941 0.82032,-1.15527v0c0,-0.24154 -0.08204,-0.43978 -0.2461,-0.59473c-0.16406,-0.15495 -0.41699,-0.23242 -0.75879,-0.23242zM129.47266,22.56787v0c-0.84766,0 -1.51303,-0.24951 -1.9961,-0.74853c-0.48307,-0.49902 -0.72461,-1.1906 -0.72461,-2.07471v0c0,-0.85677 0.16748,-1.6748 0.50244,-2.4541c0.33496,-0.7793 0.78728,-1.39111 1.35694,-1.83545c0.56966,-0.44434 1.20084,-0.66651 1.89355,-0.66651v0c0.71094,0 1.24642,0.15381 1.60645,0.46143c0.36003,0.30762 0.54004,0.73714 0.54004,1.28857v0c0,0.82943 -0.38281,1.47771 -1.14844,1.94483c-0.76562,0.46712 -1.8457,0.70068 -3.24023,0.70068v0h-0.23243l-0.02734,0.51953c0,0.57422 0.13785,1.0254 0.41357,1.35352c0.27572,0.32813 0.70069,0.49219 1.27491,0.49219v0c0.35091,0 0.68701,-0.05013 1.0083,-0.15039c0.32129,-0.10026 0.6665,-0.24154 1.03564,-0.42383v0v1.05273c-0.45117,0.20964 -0.84538,0.35205 -1.18262,0.42725c-0.33724,0.0752 -0.69726,0.11279 -1.08007,0.11279z" fill="#000000"/></g><g data-paper-data="{&quot;isPGGlyphGroup&quot;:true}"><path d="M133.06836,26.53271v-19.06542h6.76074v19.06542z" data-paper-data="{&quot;isPGGlyphRect&quot;:true}" fill-opacity="0.00001" fill="#000000"/><path d="M132.54883,22.43115l3.24707,-3.8623l-1.62012,-3.64356h1.24414l1.16211,2.77539l2.20117,-2.77539h1.42188l-3.11719,3.69825l1.72266,3.80761h-1.25098l-1.27148,-2.91211l-2.31055,2.91211z" fill="#000000"/></g><g data-paper-data="{&quot;isPGGlyphGroup&quot;:true}"><path d="M139.8291,26.53271v-19.06542h4.64844v19.06542z" data-paper-data="{&quot;isPGGlyphRect&quot;:true}" fill-opacity="0.00001" fill="#000000"/><path d="M142.60449,21.56299v0c0.28255,0 0.61295,-0.06152 0.99121,-0.18457v0v0.94336c-0.1276,0.0638 -0.31103,0.12077 -0.55029,0.1709c-0.23926,0.05013 -0.44776,0.07519 -0.62549,0.07519v0c-0.58333,0 -1.02767,-0.13672 -1.33301,-0.41016c-0.30534,-0.27344 -0.458,-0.68131 -0.458,-1.22363v0c0,-0.29167 0.04101,-0.62434 0.12304,-0.99804v0l0.8545,-4.07422h-1.16211l0.10937,-0.55371l1.26465,-0.53321l0.86816,-1.55859h0.72461l-0.37597,1.70898h1.88672l-0.19141,0.93653h-1.87988l-0.86817,4.09472c-0.08203,0.36914 -0.12304,0.64714 -0.12304,0.83399v0c0,0.21875 0.05696,0.40218 0.17089,0.55029c0.11393,0.14811 0.30534,0.22217 0.57422,0.22217z" fill="#000000"/></g><g data-paper-data="{&quot;isPGGlyphGroup&quot;:true}"><path d="M144.47754,26.53271v-19.06542h3.63672v19.06542z" data-paper-data="{&quot;isPGGlyphRect&quot;:true}" fill-opacity="0.00001" fill="#000000"/><path fill="#000000"/></g><g data-paper-data="{&quot;isPGGlyphGroup&quot;:true}"><path d="M148.11426,26.53271v-19.06542h7.71094v19.06542z" data-paper-data="{&quot;isPGGlyphRect&quot;:true}" fill-opacity="0.00001" fill="#000000"/><path d="M154.32813,12.43701l-2.13965,9.99414h-1.24414l1.32617,-6.18652c0.20508,-0.97526 0.40104,-1.77734 0.58789,-2.40625v0c-0.25521,0.26432 -0.56738,0.51042 -0.93652,0.73828v0l-1.23047,0.77246l-0.57422,-0.92285l3.13769,-1.98926z" fill="#000000"/></g><g data-paper-data="{&quot;isPGGlyphGroup&quot;:true}"><path d="M155.8252,26.53271v-19.06542h7.71093v19.06542z" data-paper-data="{&quot;isPGGlyphRect&quot;:true}" fill-opacity="0.00001" fill="#000000"/><path d="M162.26465,21.31006l-0.21192,1.12109h-6.18652l0.22559,-1.05273l3.17871,-2.86426c0.92969,-0.83398 1.53808,-1.42073 1.82519,-1.76025c0.28711,-0.33952 0.49789,-0.66195 0.63233,-0.96729c0.13444,-0.30534 0.20166,-0.64258 0.20166,-1.01172v0c0,-0.4375 -0.13217,-0.78499 -0.39649,-1.04248c-0.26432,-0.25749 -0.62662,-0.38623 -1.08691,-0.38623v0c-0.36003,0 -0.70752,0.0695 -1.04248,0.2085c-0.33496,0.139 -0.70297,0.35889 -1.10401,0.65967v0l-0.58789,-0.84082c0.88867,-0.72005 1.84571,-1.08008 2.8711,-1.08008v0c0.82031,0 1.46403,0.20622 1.93115,0.61865c0.46712,0.41243 0.70068,0.96728 0.70068,1.66455v0c0,0.48307 -0.08544,0.93197 -0.25634,1.34668c-0.1709,0.41471 -0.4546,0.85221 -0.85108,1.3125c-0.39648,0.46029 -1.08236,1.11882 -2.05762,1.97559v0l-2.35156,2.04394v0.05469z" fill="#000000"/></g><g data-paper-data="{&quot;isPGGlyphGroup&quot;:true}"><path d="M163.53613,26.53271v-19.06542h7.71094v19.06542z" data-paper-data="{&quot;isPGGlyphRect&quot;:true}" fill-opacity="0.00001" fill="#000000"/><path d="M170.88477,14.5083v0c0,0.70638 -0.22787,1.30795 -0.6836,1.80469c-0.45573,0.49674 -1.09146,0.81804 -1.90722,0.96387v0v0.06152c0.58333,0.10938 1.03336,0.35661 1.35009,0.7417c0.31673,0.38509 0.4751,0.85563 0.4751,1.41162v0c0,0.60612 -0.14355,1.14046 -0.43066,1.60303c-0.28711,0.46257 -0.70639,0.82372 -1.25782,1.08349c-0.55143,0.25977 -1.20312,0.38965 -1.95507,0.38965v0c-0.96615,0 -1.84343,-0.18001 -2.63184,-0.54004v0v-1.18945c0.38737,0.21419 0.81803,0.38395 1.29199,0.50928c0.47396,0.12533 0.92513,0.18798 1.35352,0.18798v0c0.73372,0 1.30452,-0.17773 1.7124,-0.5332c0.40788,-0.35547 0.61182,-0.84082 0.61182,-1.45605v0c0,-0.57878 -0.17318,-1.01742 -0.51953,-1.31592c-0.34635,-0.2985 -0.84538,-0.44776 -1.49707,-0.44776v0h-0.89551l0.21191,-1.01855h0.90918c0.75651,0 1.37972,-0.19368 1.86963,-0.58105c0.48991,-0.38737 0.73486,-0.89551 0.73486,-1.52442v0c0,-0.40104 -0.12532,-0.72233 -0.37597,-0.96387c-0.25065,-0.24154 -0.60157,-0.3623 -1.05274,-0.3623v0c-0.42839,0 -0.82145,0.07406 -1.1792,0.22217c-0.35775,0.14811 -0.71208,0.34522 -1.06299,0.59131v0l-0.57421,-0.86817c0.88867,-0.65625 1.86393,-0.98437 2.92578,-0.98437v0c0.80664,0 1.43782,0.19596 1.89355,0.58789c0.45573,0.39193 0.6836,0.93424 0.6836,1.62695z" fill="#000000"/></g></g><path d="M-461.5,2.5l-90,81" data-paper-data="{&quot;isHelperItem&quot;:false}" fill="#000000" stroke="none"/><path d="M-551.5,83.5h50" data-paper-data="{&quot;isHelperItem&quot;:false}" fill="#000000" stroke="none"/><path d="M-501.5,83.5h724" data-paper-data="{&quot;isHelperItem&quot;:false}" fill="#000000" stroke="none"/><path d="M369.5,-189.5l192,305" data-paper-data="{&quot;isHelperItem&quot;:false}" fill="none" stroke="#000000"/><path d="M561.5,115.5l-273,176" data-paper-data="{&quot;isHelperItem&quot;:false}" fill="none" stroke="#000000"/><path d="M288.5,291.5l-66,-208" data-paper-data="{&quot;isHelperItem&quot;:false}" fill="none" stroke="#000000"/><path d="M222.5,83.5l147,-273" data-paper-data="{&quot;isHelperItem&quot;:false}" fill="none" stroke="#000000"/><path d="M369.5,-189.5l-71,-22" data-paper-data="{&quot;isHelperItem&quot;:false}" fill="none" stroke="#000000"/></g></g></svg>